<svg xmlns="http://www.w3.org/2000/svg" color-interpolation-filters="sRGB" style="margin:auto" version="1.0" viewBox="0 0 340 250"><rect width="100%" height="100%" fill="#fff" class="background"/><rect width="100%" height="100%" fill="url(#watermark)" class="watermarklayer"/><g fill="#333" class="pmspacesvg"><path fill="none" stroke="#FC6" stroke-width="3" d="M175 78.52999878v-10l-98.52000427-10v132.9399948l98.52000427-10v-10" data-gra="graph-name"/><rect data-gra="graph-name" transform="translate(86.47999573 81.52999878)"/><g class="tp-name" data-gra="path-name"><path d="M98.89999578 123.4999974q-3.32 0-6.72-.82-3.41-.81-5.7-2.14l.36-8.38h1.75l1.87 4.16q.84 1.75 1.75 2.89.9 1.15 2.41 1.75 1.02.42 1.96.58.93.15 2.08.15 3.68 0 5.82-1.9t2.14-5.04q0-2.83-1.48-4.46t-4.73-3.14l-2.47-1.08q-5.07-2.23-7.99-5.19-2.93-2.95-2.93-7.84 0-3.62 1.84-6.18 1.84-2.56 5.1-3.95 3.25-1.38 7.59-1.38 3.2 0 6 .84 2.81.84 4.92 2.29l-.42 7.48h-1.75l-2.23-4.52q-.97-1.99-1.84-2.87-.88-.87-2.14-1.11-.73-.12-1.24-.19-.51-.06-1.36-.06-2.95 0-5.09 1.72-2.14 1.72-2.14 4.74 0 2.89 1.63 4.7 1.62 1.81 4.7 3.2l2.71 1.14q5.85 2.53 8.39 5.4 2.53 2.86 2.53 7.33 0 5.3-4.01 8.59t-11.31 3.29Zm45.23-1.03h-18.64v-1.27l2.42-.48q2.53-.54 2.53-2.95V92.8599974q0-4.22-.06-8.44h-4.77q-1.92 0-2.83 1.02-.9 1.03-1.81 2.9l-2.11 4.46h-1.69l.3-10.19h34.62l.3 10.19h-1.69l-2.11-4.46q-.9-1.87-1.81-2.9-.9-1.02-2.83-1.02h-4.83v33.35q0 2.47 2.53 2.95l2.48.48v1.27Zm19.11 0h-9.22v-1.27l1.62-.48q1.27-.36 1.96-1.08.7-.73 1.12-1.99l12.18-35.22h5.01l12.12 35.46q.48 1.32 1.08 2.02.61.69 1.93 1.11l.91.24v1.21h-15.32v-1.21l1.02-.3q1.33-.42 1.6-1.32.27-.91-.15-2.24l-2.53-7.77h-13.33l-2.59 7.65q-.42 1.33-.24 2.17.18.85 1.51 1.33l1.32.42v1.27Zm6.88-32.74-6.27 18.15h12.18l-5.91-18.15Zm38.65 32.74h-14.65v-1.27l1.26-.36q1.21-.36 1.57-1.08.36-.73.36-1.93v-30.52q0-1.26-.39-1.96-.39-.69-1.6-1.05l-1.2-.42v-1.27h14.65v1.27l-1.27.42q-1.14.3-1.5 1.02-.37.73-.37 1.99v30.58q0 1.2.43 1.9.42.69 1.56 1.05l1.15.36v1.27Zm22.43 0h-15.13v-1.27l.72-.18q1.15-.3 1.21-1.14.06-.85-.79-1.93l-11.51-15.98 14.71-14.96q.9-.9.99-1.66.09-.75-1.11-1.17l-1.03-.3v-1.27h9.53v1.27l-1.57.42q-1.38.42-2.23.99-.84.58-1.93 1.72l-10.73 10.92 13.81 19.72q.96 1.32 1.84 2.11.87.78 2.38 1.2l.84.24v1.27Zm31.9 0h-29.91v-1.27l1.21-.42q1.08-.3 1.51-1.05.42-.76.48-2.08v-30.34q-.06-1.26-.42-1.96-.37-.69-1.51-1.05l-1.27-.42v-1.27h28.71l.42 9.65h-1.69l-2.41-5.43q-.48-1.14-1.09-1.78-.6-.63-1.81-.63h-10.25q-.06 3.74-.06 7.69v8.89h5.97q1.21 0 1.84-.63.63-.63 1.18-1.72l1.02-2.29h1.33v11.16h-1.33l-1.08-2.3q-.49-1.08-1.09-1.74-.6-.67-1.81-.67h-6.03v7.48q0 3.13.03 5.58.03 2.44.03 4.79h11.58q1.21 0 1.87-.63.66-.64 1.08-1.78l2.24-5.43h1.68l-.42 9.65Z"/><path d="M113.42999569 167.43999481h-18.63v-1.27l2.41-.48q2.53-.54 2.53-2.95V137.82999481q0-4.22-.06-8.44h-4.76q-1.93 0-2.84 1.02-.9 1.03-1.8 2.9l-2.12 4.46h-1.68l.3-10.19h34.61l.3 10.19h-1.69l-2.11-4.46q-.9-1.87-1.81-2.9-.9-1.02-2.83-1.02h-4.82v33.35q0 2.47 2.53 2.95l2.47.48v1.27Zm29.67 1.03q-3.68 0-7.06-1.33-3.37-1.33-6.06-3.95-2.68-2.62-4.25-6.54-1.57-3.92-1.57-9.17 0-5.13 1.57-9.05 1.57-3.91 4.25-6.57 2.69-2.65 6.09-4.01 3.41-1.35 7.03-1.35t7.02 1.32q3.41 1.33 6.06 3.95 2.66 2.62 4.23 6.54 1.56 3.92 1.56 9.17 0 5.13-1.56 9.05-1.57 3.92-4.23 6.57-2.65 2.65-6.03 4.01-3.37 1.36-7.05 1.36Zm0-1.81q3.44 0 5.55-1.78t3.07-6q.97-4.22.97-11.4 0-7.18-.97-11.37-.96-4.19-3.07-5.97-2.11-1.78-5.55-1.78-3.38 0-5.52 1.78-2.14 1.78-3.1 5.97-.97 4.19-.97 11.37 0 7.18.97 11.4.96 4.22 3.1 6 2.14 1.78 5.52 1.78Zm38.65 1.02h-4.16l-10.43-35.52q-.42-1.32-.97-1.99-.54-.66-1.8-1.08l-.73-.24v-1.27h15.56v1.27l-1.27.42q-1.38.42-1.78 1.21-.39.78-.03 2.17l6.58 24.72 7.17-21.41-1.08-3.49q-.42-1.27-.85-1.96-.42-.7-1.38-1.12l-1.33-.54v-1.27h14.77v1.27l-1.68.54q-1.21.42-1.39 1.21-.18.78.24 2.11l7.6 25.02 6.99-24.66q.42-1.39.24-2.41-.18-1.03-1.56-1.45l-1.21-.36v-1.27h8.92v1.27l-1.5.48q-1.21.42-1.72 1.24-.51.81-.88 2.14l-9.89 34.97h-4.16l-8.92-28.1-9.35 28.1Zm48.42-.24h-9.28v-1.27l1.75-.48q1.14-.3 1.59-1.14.46-.85.46-2.05v-29.19q-.55-1.15-.94-1.72-.39-.57-.81-.99-.42-.43-1.15-.97l-1.08-.78v-1.27h10.31l20.02 27.38v-22.37q0-1.21-.39-2.11-.4-.91-1.6-1.21l-1.81-.42v-1.27h8.98v1.27l-1.5.42q-1.15.36-1.42 1.24-.27.87-.27 2.08v35.09h-3.38l-22.97-31.6v26.35q0 1.27.36 2.12.36.84 1.51 1.14l1.62.48v1.27Z" data-gra="path-name-1"/></g></g></svg>